Coordinates
version=1
nRows=11
nColumns=36
inDegrees=yes

Units are S.I. units (second, meters, Newtons, ...)
If the header above contains a line with 'inDegrees', this indicates whether rotational values are in degrees (yes) or radians (no).

endheader
time	pelvis_tilt	pelvis_list	pelvis_rotation	pelvis_tx	pelvis_ty	pelvis_tz	hip_flexion_r	hip_adduction_r	hip_rotation_r	knee_angle_r	knee_angle_r_beta	ankle_angle_r	subtalar_angle_r	mtp_angle_r	hip_flexion_l	hip_adduction_l	hip_rotation_l	knee_angle_l	knee_angle_l_beta	ankle_angle_l	subtalar_angle_l	mtp_angle_l	lumbar_extension	lumbar_bending	lumbar_rotation	arm_flex_r	arm_add_r	arm_rot_r	elbow_flex_r	pro_sup_r	arm_flex_l	arm_add_l	arm_rot_l	elbow_flex_l	pro_sup_l
      2.76666670	      6.18983349	      0.58868329	     -1.02030516	      0.20869382	      0.85528564	      0.02646161	     12.00672652	     -0.02568548	    -11.09970609	      7.60391283	      0.13271331	     -9.37938208	     -4.42087625	     -7.49999987	     -1.36950059	      8.01944572	     -3.02632685	     14.19704762	      0.24778523	      5.62165117	      9.54949435	     -7.49999987	     -2.66902114	      3.59188066	     -3.03466441	     48.17722259	     13.15735207	     65.70465620	    125.84295886	     89.82116113	     27.62043428	      2.69016991	     36.72567467	    113.64498562	     86.06568692
      2.78333330	      6.31583469	      0.59671945	     -1.08383606	      0.20845028	      0.85255119	      0.02662365	     11.84863982	     -0.01118827	    -11.25400988	      7.63104899	      0.13318693	     -8.78998389	     -4.42334705	     -7.49999987	     -1.48979461	      8.03924523	     -3.06772116	     14.17375159	      0.24737863	      5.36844368	      9.51166080	     -7.49999987	     -2.74047025	      3.37242159	     -2.74737187	     48.32617046	     13.14549565	     65.54270088	    125.78398247	     89.39829390	     27.26772957	      2.79765801	     33.55534333	    111.34516046	     85.71005549
      2.80000000	      6.20024381	      0.65577397	     -1.12585328	      0.20799384	      0.84952398	      0.02741692	     12.02262710	     -0.03480603	    -11.40289282	      7.69993903	      0.13438929	     -8.29452121	     -4.56954392	     -7.49999987	     -1.33966579	      8.03703269	     -3.13425468	     14.32589439	      0.25003403	      5.92138234	      9.65345990	     -7.49999987	     -2.57749642	      3.14515316	     -2.39072357	     48.73027308	     13.96768205	     65.51347073	    124.90044179	     92.03296098	     27.02023956	      4.25617617	     35.69464799	    114.76007337	     88.75864435
      2.81666670	      6.08442162	      0.70871028	     -0.92176768	      0.20617831	      0.85075646	      0.02522006	     12.27557930	     -0.19107309	    -11.39177747	      8.03522177	      0.14024108	     -7.96222791	     -4.54150521	     -7.49999987	     -1.22330556	      8.16046325	     -2.93342539	     14.49299759	      0.25295053	      6.65816020	      9.57435208	     -7.49999987	     -2.56967127	      2.92562281	     -2.14870336	     48.89898261	     14.50113408	     65.71057062	    124.43777608	     91.00686004	     27.03219698	      5.35270967	     38.86782899	    117.66464632	     87.70424786
      2.83333330	      5.99460948	      0.68696803	     -0.76019328	      0.20742943	      0.85144550	      0.02579073	     12.34699841	     -0.22888237	    -11.20463865	      8.03229523	      0.14019000	     -7.73237093	     -4.49134088	     -7.49999987	     -1.21374340	      8.19741525	     -2.76762956	     14.38649175	      0.25109165	      7.04787210	      9.01674414	     -7.49999987	     -2.34740788	      2.64868155	     -1.98948807	     48.97130603	     14.67984616	     65.54861477	    124.46237807	     89.68159563	     27.47047034	      6.56205983	     42.38048725	    120.01263533	     86.54269335
      2.85000000	      5.92419637	      0.67164113	     -0.78132686	      0.20579951	      0.85214815	      0.02566864	     12.50687494	     -0.23798167	    -11.19206169	      7.98911211	      0.13943631	     -7.72338827	     -4.39905175	     -7.49999987	     -1.19025035	      8.24625414	     -2.74892473	     14.15265587	      0.24701044	      7.06786967	      9.01794236	     -7.49999987	     -2.34917948	      2.38927199	     -2.05175031	     49.09829609	     14.87406292	     65.80387202	    124.59738056	     89.61818470	     27.93824307	      7.37487861	     45.67575207	    121.72353371	     86.45092074
      2.86666670	      5.80809592	      0.70264464	     -0.67514386	      0.20579001	      0.84757264	      0.02486320	     12.71361971	     -0.31770317	    -11.10214915	      8.04978046	      0.14049517	     -7.55866693	     -4.36698274	     -7.49999987	     -1.08237202	      8.30341076	     -2.77263707	     14.32021210	      0.24993485	      7.23631927	      8.90213673	     -7.49999987	     -2.16378018	      2.17693787	     -1.81333072	     48.98148864	     14.68850521	     65.45028007	    125.01341524	     93.16101493	     28.44896072	      7.87999539	     48.29733951	    122.73100824	     87.68999560
      2.88333330	      5.72799312	      0.69992744	     -0.72105045	      0.20261641	      0.85471075	      0.02479849	     12.85807073	     -0.35560089	    -11.42397518	      8.04199847	      0.14035935	     -7.48664914	     -3.75037392	     -7.49999987	     -0.99620758	      8.32658027	     -2.36318047	     14.13022026	      0.24661887	      7.14609309	      8.69960339	     -7.49999987	     -2.21460869	      1.96610297	     -1.82699619	     49.04451729	     14.62117992	     65.43830920	    125.21653083	     92.29036582	     28.88156971	      8.35284535	     50.80113369	    123.54093930	     86.92612272
      2.90000000	      5.76889922	      0.70616688	     -0.87121745	      0.20079173	      0.85199858	      0.02448438	     13.05459903	     -0.36880559	    -11.33254137	      8.23060170	      0.14365110	     -7.50646703	     -4.05853242	     -7.49999987	     -0.94140661	      8.34129162	     -2.63671998	     14.10814893	      0.24623365	      7.15757325	      8.92510808	     -7.49999987	     -2.33726901	      1.75639261	     -1.58805743	     49.02907010	     14.44683352	     65.16302457	    125.59906194	     93.54476326	     29.34048492	      8.73205928	     52.60895427	    123.81878719	     86.75462754
      2.91666670	      5.80683935	      0.54149295	     -0.83435106	      0.20285501	      0.85138326	      0.02377530	     13.13046625	     -0.30406006	    -11.34241660	      8.26770662	      0.14429870	     -7.71042010	     -3.98755926	     -7.49999987	     -0.90420014	      8.21463321	     -2.65893334	     13.87239700	      0.24211900	      7.10954315	      8.95574052	     -7.49999987	     -2.39312313	      1.82867760	     -1.79498964	     49.01724879	     14.19188502	     65.08001829	    125.57660691	     93.53956480	     29.53807037	      8.50704057	     52.67185668	    123.83436887	     86.76156776
      2.93333330	      5.91789520	      0.34909981	     -0.87420534	      0.20034237	      0.84971287	      0.02339930	     13.30524581	     -0.15791477	    -11.50886435	      8.54292755	      0.14910221	     -8.05114092	     -4.27855005	     -7.49999987	     -0.91180521	      8.09470106	     -2.74649330	     13.82719228	      0.24133003	      7.38483325	      9.12394234	     -7.49999987	     -2.52641404	      1.86287903	     -1.83672008	     48.80518333	     13.74876505	     65.02667156	    126.07415334	     93.72324294	     30.17279520	      7.96890080	     53.46972369	    123.71862847	     86.54230310
